Coordinates
nRows=232
nColumns=2
inDegrees=yes
endheader
time	ankle_angle_r	
2.89415	  9.112823	
2.92742	  9.090816	
2.96069	  9.163495	
2.99395	  9.171329	
3.02722	  9.178367	
3.06048	  9.181982	
3.09375	  9.147463	
3.12702	  9.151271	
3.16028	  9.174631	
3.19355	  9.135819	
3.22681	  9.161947	
3.26008	  9.185791	
3.29335	  9.129242	
3.32661	  9.161367	
3.35988	  9.155273	
3.39315	  9.160049	
3.42641	  9.185791	
3.45968	  9.155273	
3.49294	  9.180725	
3.52621	  9.180629	
3.55948	  9.155273	
3.59274	  9.120209	
3.62601	  9.169434	
3.65927	  9.195500	
3.69254	  9.170532	
3.72581	  9.180048	
3.75907	  9.176372	
3.79234	  9.097625	
3.8256	  9.170887	
3.85887	  9.194921	
3.89214	  9.167113	
3.9254	  9.176855	
3.95867	  9.157694	
3.99194	  9.148757	
4.0252	  9.170532	
4.05847	  9.194341	
4.09173	  9.150114	
4.125	  9.201050	
4.15827	  9.194051	
4.19153	  9.163436	
4.2248	  9.193857	
4.25806	  9.177822	
4.29133	  9.155273	
4.3246	  9.201050	
4.35786	  9.193371	
4.39113	  9.170532	
4.4244	  9.170245	
4.45766	  9.177921	
4.49093	  9.147307	
4.52419	  9.162469	
4.55746	  9.163433	
4.59073	  9.184537	
4.62399	  9.170532	
4.65726	  9.187431	
4.69052	  9.124756	
4.72379	  9.183764	
4.75706	  9.201050	
4.79032	  9.152860	
4.82359	  9.161599	
4.85685	  9.182990	
4.89012	  9.149141	
4.92339	  9.155273	
4.95665	  9.161212	
4.98992	  9.161116	
5.02319	  9.195304	
5.05645	  9.185791	
5.08972	  9.149721	
5.12298	  9.160728	
5.15625	  9.145373	
5.18952	  9.114232	
5.22278	  9.124993	
5.25605	  9.160395	
5.28931	  9.155273	
5.32258	  9.149765	
5.35585	  9.181012	
5.38911	  9.165851	
5.42238	  9.205635	
5.45565	  9.196561	
5.48891	  9.087763	
5.52218	  9.185791	
5.55544	  9.185791	
5.58871	  9.162329	
5.62198	  9.216309	
5.65524	  9.185791	
5.68851	  9.170532	
5.72177	  9.151558	
5.75504	  9.097857	
5.78831	  9.136493	
5.82157	  9.155273	
5.85484	  9.134741	
5.8881	  9.143247	
5.92137	  9.143149	
5.95464	  9.152235	
5.9879	  9.109497	
6.02117	  9.167687	
6.05444	  9.167784	
6.0877	  9.096889	
6.12097	  9.157828	
6.15423	  9.147899	
6.1875	  9.150551	
6.22077	  9.157538	
6.25403	  9.157441	
6.2873	  9.157345	
6.32056	  9.172507	
6.35383	  9.155273	
6.3871	  9.109497	
6.42036	  9.140015	
6.45363	  9.170532	
6.4869	  9.156765	
6.52016	  9.158063	
6.55343	  9.169234	
6.58669	  9.154072	
6.61996	  9.173846	
6.65323	  9.155273	
6.68649	  9.168710	
6.71976	  9.153645	
6.75302	  9.141450	
6.78629	  9.154653	
6.81956	  9.155273	
6.85282	  9.109925	
6.88609	  9.140346	
6.91935	  9.185322	
6.95262	  9.201050	
6.98589	  9.124756	
7.01915	  9.201050	
7.05242	  9.200745	
7.08569	  9.124756	
7.11895	  9.170532	
7.15222	  9.125641	
7.18548	  9.155273	
7.21875	  9.183884	
7.25202	  9.156006	
7.28528	  9.186620	
7.31855	  9.228790	
7.35181	  9.155273	
7.38508	  9.169413	
7.41835	  9.184575	
7.45161	  9.227630	
7.48488	  9.137197	
7.51815	  9.210285	
7.55141	  9.187393	
7.58468	  9.184092	
7.61794	  9.141810	
7.65121	  9.201050	
7.68448	  9.172522	
7.71774	  9.181619	
7.75101	  9.166166	
7.78427	  9.165974	
7.81754	  9.231567	
7.85081	  9.213836	
7.88407	  9.155273	
7.91734	  9.201050	
7.9506	  9.203813	
7.98387	  9.155273	
8.01714	  9.201050	
8.0504	  9.185791	
8.08367	  9.185791	
8.11694	  9.201050	
8.1502	  9.209622	
8.18347	  9.170532	
8.21673	  9.185791	
8.25	  9.185791	
8.28327	  9.182061	
8.31653	  9.216309	
8.3498	  9.189714	
8.38306	  9.147234	
8.41633	  9.155273	
8.4496	  9.185791	
8.48286	  9.155273	
8.51613	  9.190198	
8.5494	  9.190294	
8.58266	  9.161332	
8.61593	  9.195184	
8.64919	  9.150480	
8.68246	  9.176011	
8.71573	  9.236853	
8.74899	  9.195967	
8.78226	  9.144914	
8.81552	  9.191068	
8.84879	  9.205562	
8.88206	  9.185791	
8.91532	  9.206616	
8.94859	  9.206714	
8.98185	  9.180031	
9.01512	  9.185791	
9.04839	  9.195096	
9.08165	  9.155273	
9.11492	  9.185791	
9.14819	  9.212836	
9.18145	  9.179451	
9.21472	  9.170532	
9.24798	  9.207583	
9.28125	  9.140015	
9.31452	  9.216309	
9.34778	  9.195838	
9.38105	  9.117835	
9.41431	  9.185791	
9.44758	  9.201050	
9.48085	  9.185791	
9.51411	  9.169888	
9.54738	  9.201050	
9.58065	  9.163032	
9.61391	  9.185726	
9.64718	  9.201050	
9.68044	  9.185791	
9.71371	  9.223680	
9.74698	  9.199632	
9.78024	  9.185791	
9.81351	  9.209228	
9.84677	  9.223293	
9.88004	  9.177421	
9.91331	  9.217984	
9.94657	  9.216309	
9.97984	  9.155273	
10.0131	  9.192292	
10.0464	  9.198601	
10.0796	  9.179483	
10.1129	  9.219145	
10.1462	  9.216309	
10.1794	  9.185791	
10.2127	  9.195128	
10.246	  9.219918	
10.2792	  9.180063	
10.3125	  9.210677	
10.3458	  9.235757	
10.379	  9.169477	
10.4123	  9.180449	
10.4456	  9.206294	
10.4788	  9.175680	
10.5121	  9.216309	
10.5454	  9.196095	
10.5786	  9.165674	
